<svg xmlns="http://www.w3.org/2000/svg" viewBox="0 0 64 64">
  <rect width="64" height="64" rx="14" fill="#c2571a"/>
  <path d="M16.46 35.04 15.44 35.37 19.23 25.68Q19.42 25.16 19.69 24.96Q19.95 24.76 20.42 24.76H23.33Q23.64 24.76 23.8 24.88Q23.95 25 23.95 25.22Q23.95 25.41 23.85 25.54Q23.74 25.67 23.52 25.74L23.01 25.88Q22.66 25.97 22.54 26.15Q22.42 26.33 22.44 26.73L23.21 37.04Q23.23 37.39 23.35 37.53Q23.48 37.67 23.78 37.76L24.29 37.89Q24.5 37.96 24.59 38.08Q24.69 38.2 24.69 38.39Q24.69 38.59 24.54 38.73Q24.39 38.87 24.07 38.87H19.22Q18.9 38.87 18.75 38.74Q18.59 38.62 18.59 38.41Q18.59 38.22 18.69 38.1Q18.78 37.97 19.02 37.89L19.54 37.76Q19.89 37.66 20.02 37.51Q20.14 37.36 20.12 37.04L19.29 26.45L20.22 26.39L15.92 37.49Q15.74 37.97 15.55 38.12Q15.36 38.26 15.09 38.26Q14.9 38.26 14.74 38.21Q14.58 38.15 14.44 37.98Q14.31 37.81 14.16 37.45L9.79 26.68L10.69 26.36L9.81 36.74Q9.78 37.18 10 37.4Q10.22 37.62 10.6 37.78L11.09 37.95Q11.25 38.02 11.34 38.12Q11.43 38.21 11.43 38.39Q11.43 38.61 11.28 38.74Q11.13 38.87 10.82 38.87H7.61Q7.3 38.87 7.15 38.74Q7 38.62 7 38.41Q7 38.19 7.13 38.08Q7.26 37.96 7.47 37.88L7.88 37.74Q8.22 37.63 8.43 37.4Q8.63 37.17 8.66 36.73L9.5 26.91Q9.54 26.44 9.4 26.2Q9.27 25.97 8.93 25.88L8.43 25.75Q8.2 25.68 8.09 25.55Q7.98 25.43 7.98 25.23Q7.98 24.76 8.61 24.76H11.49Q11.92 24.76 12.19 24.93Q12.45 25.11 12.65 25.63ZM35.55 35.04 34.52 35.37 38.31 25.68Q38.5 25.16 38.77 24.96Q39.03 24.76 39.5 24.76H42.41Q42.72 24.76 42.88 24.88Q43.03 25 43.03 25.22Q43.03 25.41 42.93 25.54Q42.82 25.67 42.6 25.74L42.09 25.88Q41.74 25.97 41.62 26.15Q41.5 26.33 41.52 26.73L42.29 37.04Q42.31 37.39 42.43 37.53Q42.56 37.67 42.86 37.76L43.37 37.89Q43.58 37.96 43.67 38.08Q43.77 38.2 43.77 38.39Q43.77 38.59 43.62 38.73Q43.47 38.87 43.16 38.87H38.3Q37.98 38.87 37.83 38.74Q37.67 38.62 37.67 38.41Q37.67 38.22 37.77 38.1Q37.86 37.97 38.11 37.89L38.62 37.76Q38.97 37.66 39.1 37.51Q39.22 37.36 39.2 37.04L38.37 26.45L39.3 26.39L35 37.49Q34.82 37.97 34.63 38.12Q34.44 38.26 34.17 38.26Q33.98 38.26 33.82 38.21Q33.66 38.15 33.52 37.98Q33.39 37.81 33.24 37.45L28.87 26.68L29.77 26.36L28.89 36.74Q28.86 37.18 29.08 37.4Q29.3 37.62 29.68 37.78L30.17 37.95Q30.33 38.02 30.42 38.12Q30.52 38.21 30.52 38.39Q30.52 38.61 30.36 38.74Q30.21 38.87 29.9 38.87H26.7Q26.38 38.87 26.23 38.74Q26.08 38.62 26.08 38.41Q26.08 38.19 26.21 38.08Q26.34 37.96 26.55 37.88L26.96 37.74Q27.3 37.63 27.51 37.4Q27.71 37.17 27.74 36.73L28.58 26.91Q28.62 26.44 28.48 26.2Q28.35 25.97 28.01 25.88L27.51 25.75Q27.28 25.68 27.17 25.55Q27.06 25.43 27.06 25.23Q27.06 24.76 27.69 24.76H30.57Q31 24.76 31.27 24.93Q31.53 25.11 31.74 25.63ZM51.44 25.74 50.87 25.87Q50.62 25.94 50.49 26.08Q50.36 26.22 50.36 26.44V37.15Q50.36 37.53 50.58 37.69Q50.81 37.86 51.26 37.86H52.93Q53.51 37.86 53.91 37.71Q54.31 37.55 54.64 37.16Q54.96 36.76 55.29 36.04L55.9 34.65Q56.02 34.39 56.19 34.31Q56.37 34.22 56.6 34.28Q56.84 34.34 56.94 34.51Q57.04 34.68 56.96 34.96L56.06 38.51Q55.95 38.88 55.78 39.06Q55.61 39.24 55.29 39.24Q55.08 39.24 54.87 39.15Q54.67 39.06 54.42 38.96Q54.17 38.87 53.8 38.87H46.35Q46.04 38.87 45.89 38.74Q45.75 38.62 45.75 38.41Q45.75 38.02 46.17 37.89L46.74 37.76Q46.99 37.69 47.12 37.55Q47.25 37.41 47.25 37.19V26.44Q47.25 26.22 47.12 26.08Q46.99 25.94 46.74 25.87L46.17 25.74Q45.75 25.6 45.75 25.22Q45.75 25 45.89 24.88Q46.04 24.76 46.35 24.76H51.26Q51.57 24.76 51.72 24.88Q51.86 25 51.86 25.22Q51.86 25.6 51.44 25.74Z" fill="#fbf8f3"/>
</svg>
